<?xml version="1.0" encoding="UTF-8"?>
<svg id="Layer_2" data-name="Layer 2" xmlns="http://www.w3.org/2000/svg" viewBox="0 0 1024 1024">
  <defs>
    <style>
      .cls-1 {
        fill: #fff;
      }
    </style>
  </defs>
  <g id="Layer_1-2" data-name="Layer 1">
    <g>
      <rect class="cls-1" width="1024" height="1024"/>
      <g id="uuid-159835c0-2edc-4187-815a-6f8cb561e61b" data-name="Layer 1-2">
        <g>
          <path d="M489.39,800.95v-227.82h-29.27c-40.23,0-58.45,17.12-61.86,63.42h-3.41v-78.98h233.87l.4,78.98h-3.41c-2.27-46.3-21.63-63.42-62.65-63.42h-28.08v227.84c0,28.08,6.47,37.22,33.44,37.22v3.8h-112.76v-3.8c26.97,0,33.78-9.14,33.78-37.22"/>
          <path d="M498.71,470.54l-111.25-239.94v189.1c0,33.04,8.35,42.92,34.55,42.92v3.8h-85.42v-3.8c25.81,0,34.55-9.88,34.55-42.92v-191.39c0-31.88-9.48-42.5-36.45-42.5v-3.8h80.09l101.38,217.91,97.6-217.91h75.57v3.8c-26.97,0-33.78,9.14-33.78,37.22v202.75c0,27.71,6.84,36.85,33.44,36.85v3.8h-113.13v-3.8c26.97,0,34.15-9.14,34.15-36.85v-195.57l-107.85,240.31h-3.46l.03.03Z"/>
        </g>
      </g>
    </g>
  </g>
</svg>