<svg viewBox="0 0 777.21 287.25" xmlns="http://www.w3.org/2000/svg"><path d="m724.32 270.13v-86.25h-11.08c-15.23 0-22.13 6.48-23.42 24.01h-1.29v-29.9h88.54l.15 29.9h-1.14c-1.01-17.53-8.33-24.01-23.86-24.01h-10.63v86.26c0 10.63 2.59 14.09 12.79 14.09v1.44h-42.83v-1.44c10.21 0 12.79-3.46 12.79-14.09"/><path d="m645.83 270.13v-37.22h-49.73v37.22c0 10.63 2.59 14.09 12.79 14.09v1.44h-42.69v-1.44c10.21 0 12.66-3.46 12.66-14.09v-76.61c0-10.63-2.45-14.09-12.66-14.09v-1.44h42.69v1.44c-10.21 0-12.79 3.46-12.79 14.09v33.49h49.73v-33.49c0-10.63-2.45-14.09-12.66-14.09v-1.44h42.69v1.44c-10.21 0-12.79 3.46-12.79 14.09v76.61c0 10.63 2.59 14.09 12.79 14.09v1.44h-42.69v-1.44c10.21 0 12.66-3.46 12.66-14.09"/><path d="m453.35 231.75c0-32.49 21.42-55.34 56.49-55.34 13.5 0 25.3 3.16 32.49 5.74v28.32h-1.29c-1.44-20.85-14.52-28.32-29.9-28.32-25.3 0-38.53 19.98-38.53 49.59 0 28.02 10.63 49.88 34.79 49.88 8.06 0 15.53-2.15 19.83-4.18v-30.32c0-10.63-2.59-14.09-12.79-14.09h-1.01v-1.44h41.97v1.44c-8.63 0-11.08 3.46-11.08 14.09v28.74h6.18v.86c-12.93 4.45-27.45 10.49-43.13 10.49-36.08 0-54.06-25-54.06-55.49"/><path d="m349.29 243.4v-49.88c0-10.63-2.45-14.09-11.08-14.09v-1.44h41.1v1.44c-10.21 0-12.79 3.46-12.79 14.09v49.88c0 22.28 7.91 34.92 28.46 34.92s28.46-12.93 28.46-34.79v-48c0-12.22-3.16-16.1-13.08-16.1v-1.44h31.06v1.44c-8.33 0-11.65 3.88-11.65 16.1v47.87c0 29.6-12.51 43.85-40.26 43.85-26.02 0-40.26-14.22-40.26-43.85"/><path d="m274.53 176.41c-30.47 0-51.17 22.72-51.17 55.49s20.85 55.34 51.17 55.34 51.17-22.7 51.17-55.34-20.7-55.49-51.17-55.49zm.02 105.22c-20.98 0-32.05-21.99-32.05-49.73s10.93-49.73 32.05-49.73 31.9 21.99 31.9 49.73-10.93 49.73-31.9 49.73z"/><path d="m180.96 270.13v-37.22h-49.88v37.22c0 10.63 2.59 14.09 12.79 14.09v1.44h-42.69v-1.44c10.21 0 12.79-3.46 12.79-14.09v-76.61c0-10.63-2.59-14.09-12.79-14.09v-1.44h42.69v1.44c-10.21 0-12.79 3.46-12.79 14.09v33.49h49.88v-33.49c0-10.63-2.59-14.09-12.79-14.09v-1.44h42.69v1.44c-10.21 0-12.79 3.46-12.79 14.09v76.61c0 10.63 2.59 14.09 12.79 14.09v1.44h-42.69v-1.44c10.21 0 12.79-3.46 12.79-14.09"/><path d="m35.79 270.13v-86.25h-11.08c-15.23 0-22.13 6.48-23.42 24.01h-1.29v-29.9h88.54l.15 29.9h-1.29c-.86-17.53-8.19-24.01-23.72-24.01h-10.63v86.26c0 10.63 2.45 14.09 12.66 14.09v1.44h-42.69v-1.44c10.21 0 12.79-3.46 12.79-14.09"/><path d="m396.57 93.73-39.81-93.73h-1.29l-37.52 89.97-.02.04c-5.17 13.38-9.62 17.68-15.95 17.83v1.44h31.63v-1.44h-.86c-7.62 0-11.35-3.59-11.35-7.62 0-2.58 1.14-5.89 2.72-9.77l5.61-13.38h41.55l6.18 15.23c1.58 3.88 2.59 6.31 2.59 8.91 0 3.74-2.15 6.61-9.92 6.61h-1.01v1.44h41.1v-1.44c-5.89-.29-9.05-3.31-13.65-14.09zm-64.37-22.43 18.1-43.85 18.4 43.85z"/><path d="m548.09 93.58v-76.62c0-10.63-2.59-14.09-12.79-14.09v-1.44h80.35v27.45h-1.29c-1.29-15.8-7.91-21.56-24.88-21.56h-24.14v41.97h22.13c11.35 0 15.68-3.46 16.1-15.53h1.29v37.37h-1.29c-.42-12.07-4.75-16.1-16.1-16.1h-22.13v48.15h22.13c20.28 0 28.02-3.59 29.9-24.73h1.29v30.62h-83.37v-1.44c10.21 0 12.79-3.46 12.79-14.09"/><path d="m464.45 1.44h-44.71v1.44c10.19 0 12.79 3.46 12.79 13.95v76.91c0 10.49-2.58 13.95-12.79 13.95v1.44h44.71c32.62 0 58.64-16.82 58.64-53.76s-26.02-53.93-58.64-53.93zm-.61 101.78h-14.09v-95.88h14.09c26.31 0 40.11 15.95 40.11 48s-13.8 47.87-40.11 47.87z"/><path d="m220.64 110.67-42.12-90.84v71.59c0 12.51 3.16 16.25 13.08 16.25v1.44h-32.35v-1.44c9.77 0 13.08-3.74 13.08-16.25v-72.45c0-12.07-3.59-16.1-13.8-16.1v-1.44h30.32l38.38 82.5 36.96-82.49h28.61v1.44c-10.21 0-12.79 3.46-12.79 14.09v76.76c0 10.49 2.59 13.95 12.66 13.95v1.44h-42.83v-1.44c10.21 0 12.93-3.46 12.93-13.95v-74.04l-40.83 90.98h-1.31z"/></svg>