<?xml version="1.0" encoding="UTF-8"?>
<svg id="Layer_2" data-name="Layer 2" xmlns="http://www.w3.org/2000/svg" viewBox="0 0 1707.7 91.58">
  <g id="Layer_1-2" data-name="Layer 1">
    <g>
      <path d="M1376.42,84.16l11.12-16.9h-10.71v-1.99h14.37l-13.08,20.04-1.7-1.14ZM1405.97,84.84h-12.64l7.13-8.24c.5-.59,1.82-2.14,2.29-2.85.88-1.26,1.09-2.2,1.09-2.99,0-2.2-1.58-3.81-3.9-3.81-1.38,0-2.52.62-3.26,1.73-.38.59-.62,1.32-.65,2.32h-2.17c.09-1.97.7-3.17,1.47-4.05.82-.94,2.2-1.99,4.63-1.99,3.46,0,6.04,2.46,6.04,5.84,0,1.32-.38,2.52-1.55,4.19-.82,1.14-1.88,2.35-2.67,3.26l-4.08,4.61h8.27v1.99ZM1431.9,68l-1.73,1.14c-.26-.53-.7-1.11-1.14-1.47-.38-.29-1.09-.67-2.2-.67-1.94,0-3.29,1.2-3.29,3.02,0,.76.21,1.2.73,1.7.59.59,1.32.91,2.05,1.23l1.88.82c1.14.5,2.2,1.03,3.02,1.85,1,1,1.41,2.14,1.41,3.55,0,3.61-2.67,6.01-6.19,6.01-1.29,0-2.9-.26-4.25-1.58-.97-.94-1.55-2.29-1.82-3.46l2.11-.59c.15,1.03.62,1.91,1.17,2.49.85.85,1.82,1.09,2.82,1.09,2.67,0,3.93-1.91,3.93-3.87,0-.88-.26-1.64-.97-2.29-.56-.53-1.32-.88-2.35-1.35l-1.76-.82c-.76-.35-1.73-.76-2.61-1.61-.85-.82-1.35-1.73-1.35-3.2,0-3.02,2.32-5.05,5.49-5.05,1.2,0,2.17.23,3.14.88.79.53,1.47,1.32,1.91,2.17ZM1439.95,83.14v8.45h-2.11v-18.92h2.11v1.7c1.44-1.79,3.29-1.99,4.17-1.99,3.81,0,5.93,3.17,5.93,6.45s-2.14,6.37-5.84,6.37c-1.97,0-3.34-.88-4.25-2.05ZM1443.91,83.31c2.46,0,3.96-2.05,3.96-4.49,0-2.99-2.02-4.58-3.99-4.58s-4.05,1.61-4.05,4.55c0,2.49,1.58,4.52,4.08,4.52ZM1455.04,84.84v-12.17h2.11v1.32c.21-.32,1.11-1.61,2.76-1.61.65,0,1.35.23,1.88.5l-1,1.91c-.47-.32-.91-.41-1.23-.41-.85,0-1.38.35-1.7.76-.35.47-.7,1.29-.7,3.29v6.42h-2.11ZM1465.48,72.66h2.11v12.17h-2.11v-12.17ZM1465.04,68.06c0-.82.67-1.5,1.5-1.5s1.5.67,1.5,1.5-.67,1.5-1.5,1.5-1.5-.67-1.5-1.5ZM1473.34,84.84v-12.17h2.11v1.41c.38-.5,1.47-1.7,3.49-1.7,1.44,0,2.76.59,3.49,1.67.62.91.7,1.91.7,3.26v7.54h-2.11v-7.48c0-.73-.06-1.58-.56-2.23-.41-.53-1.06-.88-1.99-.88-.73,0-1.53.21-2.14.94-.82.97-.88,2.41-.88,3.29v6.37h-2.11ZM1498.21,74.4v-1.73h2.11v11.88c0,1.32,0,3.2-1.17,4.78-.91,1.23-2.58,2.26-4.87,2.26-2.08,0-3.52-.82-4.34-1.64-.82-.82-1.58-2.14-1.58-3.93h2.08c0,1.03.41,1.94.94,2.52.88.97,1.99,1.17,2.93,1.17,1.5,0,2.52-.53,3.23-1.7.62-1,.67-2.08.67-3.11v-1.76c-.7.91-2.02,2.05-4.17,2.05-1.79,0-3.23-.7-4.17-1.64-.82-.82-1.76-2.35-1.76-4.81s.88-3.84,1.76-4.72c1.03-1,2.52-1.64,4.17-1.64,1.79,0,3.2.76,4.17,2.02ZM1494.28,74.25c-1.29,0-2.17.56-2.76,1.14-1.03,1.06-1.23,2.35-1.23,3.34,0,1.06.21,2.49,1.38,3.58.67.62,1.5,1,2.61,1s1.99-.35,2.67-1.03c.82-.79,1.38-2.08,1.38-3.52s-.53-2.7-1.29-3.43c-.68-.67-1.67-1.09-2.76-1.09ZM1525.69,68l-1.73,1.14c-.26-.53-.7-1.11-1.14-1.47-.38-.29-1.08-.67-2.2-.67-1.94,0-3.29,1.2-3.29,3.02,0,.76.21,1.2.73,1.7.59.59,1.32.91,2.05,1.23l1.88.82c1.14.5,2.2,1.03,3.02,1.85,1,1,1.41,2.14,1.41,3.55,0,3.61-2.67,6.01-6.19,6.01-1.29,0-2.9-.26-4.25-1.58-.97-.94-1.55-2.29-1.82-3.46l2.11-.59c.15,1.03.62,1.91,1.17,2.49.85.85,1.82,1.09,2.82,1.09,2.67,0,3.93-1.91,3.93-3.87,0-.88-.26-1.64-.97-2.29-.56-.53-1.32-.88-2.35-1.35l-1.76-.82c-.76-.35-1.73-.76-2.61-1.61-.85-.82-1.35-1.73-1.35-3.2,0-3.02,2.32-5.05,5.49-5.05,1.2,0,2.17.23,3.14.88.79.53,1.47,1.32,1.91,2.17ZM1535.92,74.6h-2.11v10.24h-2.11v-10.24h-1.29v-1.94h1.29v-4.4h2.11v4.4h2.11v1.94ZM1539.55,83.66c0-.79.67-1.47,1.47-1.47s1.47.67,1.47,1.47-.67,1.47-1.47,1.47-1.47-.67-1.47-1.47ZM1559.41,84.84h-2.17v-20.39l15.25,15.99v-15.17h2.17v20.45l-15.25-15.99v15.11ZM1591.6,65.27v2.05h-7.98v5.81h7.74v2.05h-7.74v7.6h7.98v2.05h-10.15v-19.57h10.15ZM1595.08,65.27h2.41l5.16,14.67,6.13-15.66,5.81,15.66,5.72-14.67h2.41l-8.21,20.59-5.75-15.66-6.16,15.66-7.51-20.59ZM1639.97,84.84v-8.42l-6.42-11.15h2.52l4.99,8.74,5.05-8.74h2.52l-6.48,11.15v8.42h-2.17ZM1661.56,85.19c-5.66,0-10.18-4.31-10.18-10.12s4.55-10.12,10.18-10.12,10.18,4.28,10.18,10.12-4.52,10.12-10.18,10.12ZM1661.56,67c-4.4,0-7.95,3.58-7.95,8.07s3.55,8.07,7.95,8.07,7.95-3.58,7.95-8.07-3.55-8.07-7.95-8.07ZM1677.48,65.27h3.14c1.32,0,3.28.09,4.75,1.09,1.14.76,2.14,2.26,2.14,4.34,0,2.99-1.96,5.19-4.93,5.4l6.22,8.74h-2.64l-5.95-8.57h-.56v8.57h-2.17v-19.57ZM1679.65,67.33v7.01h1.38c2.7,0,4.31-1.29,4.31-3.58,0-1.09-.32-2.17-1.55-2.87-.88-.5-1.88-.56-2.82-.56h-1.32ZM1696.14,65.27v8.39l8.33-8.39h2.93l-9.15,9.12,9.45,10.44h-2.99l-8.01-8.98-.56.56v8.42h-2.17v-19.57h2.17Z"/>
      <polygon points="3.29 84.84 3.29 67.33 0 67.33 1.14 65.27 5.46 65.27 5.46 84.84 3.29 84.84"/>
      <path d="M35.52,68l-1.73,1.14c-.26-.53-.7-1.11-1.14-1.47-.38-.29-1.09-.67-2.2-.67-1.94,0-3.29,1.2-3.29,3.02,0,.76.21,1.2.73,1.7.59.59,1.32.91,2.05,1.23l1.88.82c1.14.5,2.2,1.03,3.02,1.85,1,1,1.41,2.14,1.41,3.55,0,3.61-2.67,6.01-6.19,6.01-1.29,0-2.9-.26-4.25-1.58-.97-.94-1.55-2.29-1.82-3.46l2.11-.59c.15,1.03.62,1.91,1.17,2.49.85.85,1.82,1.09,2.82,1.09,2.67,0,3.93-1.91,3.93-3.87,0-.88-.26-1.64-.97-2.29-.56-.53-1.32-.88-2.35-1.35l-1.76-.82c-.76-.35-1.73-.76-2.61-1.61-.85-.82-1.35-1.73-1.35-3.2,0-3.02,2.32-5.05,5.49-5.05,1.2,0,2.17.23,3.14.88.79.53,1.47,1.32,1.91,2.17Z"/>
      <polygon points="45.74 74.6 43.63 74.6 43.63 84.84 41.52 84.84 41.52 74.6 40.23 74.6 40.23 72.67 41.52 72.67 41.52 68.27 43.63 68.27 43.63 72.67 45.74 72.67 45.74 74.6"/>
      <path d="M60.39,65.27h2.17v14.08c0,1.58-.03,3.37-1.2,4.61-.67.73-1.67,1.23-3.11,1.23s-2.61-.44-3.49-1.44l1.2-1.7c.65.7,1.5,1.09,2.23,1.09.59,0,1.11-.21,1.47-.56.73-.73.73-1.97.73-3.17v-14.14Z"/>
      <path d="M74.52,72.37c-3.73,0-6.45,2.73-6.45,6.42s2.76,6.39,6.45,6.39,6.45-2.7,6.45-6.39-2.73-6.42-6.45-6.42ZM74.52,83.31c-2.17,0-4.28-1.53-4.28-4.52s2.05-4.55,4.28-4.55,4.28,1.55,4.28,4.55-2.08,4.52-4.28,4.52Z"/>
      <path d="M85.97,84.84v-21.38h2.11v10.62c.38-.5,1.47-1.7,3.49-1.7,1.44,0,2.76.59,3.49,1.67.62.91.7,1.91.7,3.26v7.54h-2.11v-7.48c0-.73-.06-1.58-.56-2.23-.41-.53-1.06-.88-1.99-.88-.73,0-1.53.21-2.14.94-.82.97-.88,2.41-.88,3.29v6.37h-2.11Z"/>
      <path d="M101.51,84.84v-12.17h2.11v1.41c.38-.5,1.47-1.7,3.49-1.7,1.44,0,2.76.59,3.49,1.67.62.91.7,1.91.7,3.26v7.54h-2.11v-7.48c0-.73-.06-1.58-.56-2.23-.41-.53-1.06-.88-1.99-.88-.73,0-1.53.21-2.14.94-.82.97-.88,2.41-.88,3.29v6.37h-2.11Z"/>
      <polygon points="117.27 71.35 119.64 64.57 121.61 65.27 118.65 71.9 117.27 71.35"/>
      <path d="M131.06,74.57l-1.73.91c-.29-.7-.91-1.23-1.7-1.23s-1.47.44-1.47,1.38c0,.88.59,1.14,1.96,1.73,1.76.73,2.58,1.29,3.05,1.88.53.65.65,1.29.65,1.97,0,2.55-1.85,3.99-4.2,3.99-.5,0-3.23-.06-4.25-3.11l1.82-.76c.23.65.94,1.99,2.46,1.99,1.38,0,1.99-1.03,1.99-1.94,0-1.14-.82-1.53-1.96-2.02-1.47-.65-2.41-1.11-2.96-1.79-.47-.59-.56-1.17-.56-1.79,0-2.14,1.5-3.4,3.55-3.4.65,0,2.38.12,3.34,2.2Z"/>
      <polygon points="145.52 65.27 147.69 65.27 147.69 82.79 153.09 82.79 153.09 84.84 145.52 84.84 145.52 65.27"/>
      <path d="M157.26,84.84v-12.17h2.11v1.41c.38-.5,1.47-1.7,3.49-1.7,1.44,0,2.76.59,3.49,1.67.62.91.7,1.91.7,3.26v7.54h-2.11v-7.48c0-.73-.06-1.58-.56-2.23-.41-.53-1.06-.88-1.99-.88-.73,0-1.53.21-2.14.94-.82.97-.88,2.41-.88,3.29v6.37h-2.11Z"/>
      <path d="M172.68,83.67c0-.79.67-1.47,1.47-1.47s1.47.67,1.47,1.47-.67,1.47-1.47,1.47-1.47-.67-1.47-1.47Z"/>
      <polygon points="190.37 65.27 192.54 65.27 192.54 82.79 197.94 82.79 197.94 84.84 190.37 84.84 190.37 65.27"/>
      <path d="M210.76,64.95c-5.63,0-10.18,4.28-10.18,10.12s4.52,10.12,10.18,10.12,10.18-4.31,10.18-10.12-4.55-10.12-10.18-10.12ZM210.76,83.14c-4.4,0-7.95-3.58-7.95-8.07s3.55-8.07,7.95-8.07,7.95,3.58,7.95,8.07-3.55,8.07-7.95,8.07Z"/>
      <polygon points="228.86 84.84 226.69 84.84 226.69 64.45 241.95 80.44 241.95 65.27 244.12 65.27 244.12 85.72 228.86 69.73 228.86 84.84"/>
      <path d="M262.12,67.56c-2.46-2.08-5.25-2.29-7.22-2.29h-3.99v19.57h3.96c3.49,0,5.37-.73,7.16-2.26,1.41-1.2,3.43-3.4,3.43-7.51,0-3.52-1.55-6.01-3.34-7.51ZM260.59,81.03c-1.91,1.58-4.05,1.76-5.6,1.76h-1.91v-15.46h1.91c4.96,0,8.24,3.05,8.24,7.74,0,2.79-1.17,4.72-2.64,5.95Z"/>
      <path d="M280.33,64.95c-5.63,0-10.18,4.28-10.18,10.12s4.52,10.12,10.18,10.12,10.18-4.31,10.18-10.12-4.55-10.12-10.18-10.12ZM280.33,83.14c-4.4,0-7.95-3.58-7.95-8.07s3.55-8.07,7.95-8.07,7.95,3.58,7.95,8.07-3.55,8.07-7.95,8.07Z"/>
      <polygon points="298.43 84.84 296.25 84.84 296.25 64.45 311.51 80.44 311.51 65.27 313.68 65.27 313.68 85.72 298.43 69.73 298.43 84.84"/>
      <path d="M1313.29,72.78V5.8h-8.6c-11.83,0-17.19,5.03-18.19,18.65h-1V1.23h68.75l.11,23.22h-.89c-.79-13.62-6.47-18.65-18.53-18.65h-8.26v66.98c0,8.26,2.01,10.94,9.93,10.94v1.11h-33.26v-1.11c7.93,0,9.93-2.69,9.93-10.94"/>
      <path d="M1252.34,72.78v-28.9h-38.62v28.9c0,8.26,2.01,10.94,9.93,10.94v1.11h-33.15v-1.11c7.93,0,9.83-2.69,9.83-10.94V13.29c0-8.26-1.9-10.94-9.83-10.94v-1.11h33.15v1.11c-7.93,0-9.93,2.69-9.93,10.94v26h38.62V13.29c0-8.26-1.9-10.94-9.83-10.94v-1.11h33.15v1.11c-7.93,0-9.93,2.69-9.93,10.94v59.49c0,8.26,2.01,10.94,9.93,10.94v1.11h-33.15v-1.11c7.93,0,9.83-2.69,9.83-10.94"/>
      <path d="M1102.88,42.98c0-25.23,16.63-42.98,43.86-42.98,10.49,0,19.65,2.46,25.23,4.46v21.99h-1c-1.11-16.19-11.27-21.99-23.22-21.99-19.65,0-29.92,15.52-29.92,38.5,0,21.76,8.26,38.73,27.02,38.73,6.26,0,12.06-1.67,15.4-3.24v-23.55c0-8.26-2.01-10.94-9.93-10.94h-.79v-1.11h32.59v1.11c-6.7,0-8.6,2.69-8.6,10.94v22.32h4.8v.67c-10.04,3.46-21.32,8.14-33.49,8.14-28.02,0-41.98-19.42-41.98-43.09"/>
      <path d="M1022.07,52.02V13.29c0-8.26-1.9-10.94-8.6-10.94v-1.11h31.92v1.11c-7.93,0-9.93,2.69-9.93,10.94v38.73c0,17.3,6.14,27.12,22.1,27.12s22.1-10.04,22.1-27.02V14.84c0-9.49-2.46-12.5-10.16-12.5v-1.11h24.12v1.11c-6.47,0-9.04,3.01-9.04,12.5v37.18c0,22.99-9.72,34.05-31.26,34.05-20.2,0-31.26-11.04-31.26-34.05"/>
      <path d="M964.02,0C940.36,0,924.29,17.65,924.29,43.09s16.19,42.98,39.73,42.98,39.73-17.63,39.73-42.98S987.68,0,964.02,0ZM964.03,81.71c-16.29,0-24.89-17.07-24.89-38.62s8.49-38.62,24.89-38.62,24.77,17.07,24.77,38.62-8.49,38.62-24.77,38.62Z"/>
      <path d="M891.35,72.78v-28.9h-38.73v28.9c0,8.26,2.01,10.94,9.93,10.94v1.11h-33.15v-1.11c7.93,0,9.93-2.69,9.93-10.94V13.29c0-8.26-2.01-10.94-9.93-10.94v-1.11h33.15v1.11c-7.93,0-9.93,2.69-9.93,10.94v26h38.73V13.29c0-8.26-2.01-10.94-9.93-10.94v-1.11h33.15v1.11c-7.93,0-9.93,2.69-9.93,10.94v59.49c0,8.26,2.01,10.94,9.93,10.94v1.11h-33.15v-1.11c7.93,0,9.93-2.69,9.93-10.94"/>
      <path d="M778.63,72.78V5.8h-8.6c-11.83,0-17.19,5.03-18.19,18.65h-1V1.23h68.75l.11,23.22h-1c-.67-13.62-6.36-18.65-18.42-18.65h-8.26v66.98c0,8.26,1.9,10.94,9.83,10.94v1.11h-33.15v-1.11c7.93,0,9.93-2.69,9.93-10.94"/>
      <path d="M538.17,72.89L507.25.11h-1l-29.13,69.87v.03c-4.03,10.39-7.49,13.73-12.4,13.84v1.11h24.56v-1.11h-.67c-5.91,0-8.82-2.79-8.82-5.92,0-2,.89-4.57,2.11-7.59l4.36-10.39h32.26l4.8,11.83c1.23,3.01,2.01,4.9,2.01,6.92,0,2.9-1.67,5.13-7.7,5.13h-.79v1.11h31.92v-1.11c-4.57-.23-7.03-2.57-10.6-10.94ZM488.17,55.48l14.06-34.05,14.29,34.05h-28.35Z"/>
      <path d="M655.82,72.78V13.29c0-8.26-2.01-10.94-9.93-10.94v-1.11h62.39v21.32h-1c-1-12.27-6.14-16.74-19.32-16.74h-18.75v32.59h17.19c8.82,0,12.17-2.69,12.5-12.06h1v29.02h-1c-.33-9.37-3.69-12.5-12.5-12.5h-17.19v37.39h17.19c15.74,0,21.76-2.79,23.22-19.2h1v23.77h-64.74v-1.11c7.93,0,9.93-2.69,9.93-10.94"/>
      <path d="M590.87,1.23h-34.72v1.11c7.92,0,9.93,2.69,9.93,10.83v59.72c0,8.14-2,10.83-9.93,10.83v1.11h34.72c25.33,0,45.53-13.06,45.53-41.75S616.2,1.23,590.87,1.23ZM590.4,80.27h-10.94V5.81h10.94c20.43,0,31.15,12.39,31.15,37.28s-10.72,37.18-31.15,37.18Z"/>
      <path d="M401.55,86.05l-32.7-70.54v55.59c0,9.72,2.46,12.62,10.16,12.62v1.11h-25.12v-1.11c7.59,0,10.16-2.9,10.16-12.62V14.84c0-9.37-2.79-12.5-10.72-12.5v-1.11h23.55l29.8,64.07L435.37,1.23h22.22v1.11c-7.93,0-9.93,2.69-9.93,10.94v59.61c0,8.14,2.01,10.83,9.83,10.83v1.11h-33.26v-1.11c7.93,0,10.04-2.69,10.04-10.83V15.4l-31.7,70.65h-1.01Z"/>
    </g>
  </g>
</svg>