<?xml version="1.0" encoding="UTF-8"?>
<svg id="Layer_2" data-name="Layer 2" xmlns="http://www.w3.org/2000/svg" viewBox="0 0 1289.12 110.84">
  <defs>
    <style>
      .cls-1 {
        fill: #fff;
      }
    </style>
  </defs>
  <g id="Layer_2-2" data-name="Layer 2">
    <g id="uuid-9b012210-0f2b-4929-82f2-481e34f75ca9" data-name="Layer 2-2">
      <g id="Layer_1-2" data-name="Layer 1-2">
        <g>
          <g>
            <path class="cls-1" d="M1236.22,93.73V7.47h-11.08c-15.23,0-22.13,6.48-23.42,24.01h-1.29V1.58h88.54l.15,29.9h-1.14c-1.01-17.53-8.33-24.01-23.86-24.01h-10.63v86.26c0,10.63,2.59,14.09,12.79,14.09v1.44h-42.83v-1.44c10.21,0,12.79-3.46,12.79-14.09"/>
            <path class="cls-1" d="M1157.73,93.73v-37.22h-49.73v37.22c0,10.63,2.59,14.09,12.79,14.09v1.44h-42.69v-1.44c10.21,0,12.66-3.46,12.66-14.09V17.11c0-10.63-2.45-14.09-12.66-14.09v-1.44h42.69v1.44c-10.21,0-12.79,3.46-12.79,14.09v33.49h49.73V17.11c0-10.63-2.45-14.09-12.66-14.09v-1.44h42.69v1.44c-10.21,0-12.79,3.46-12.79,14.09v76.61c0,10.63,2.59,14.09,12.79,14.09v1.44h-42.69v-1.44c10.21,0,12.66-3.46,12.66-14.09"/>
            <path class="cls-1" d="M965.26,55.34c0-32.49,21.42-55.34,56.49-55.34,13.5,0,25.3,3.16,32.49,5.74v28.32h-1.29c-1.44-20.85-14.52-28.32-29.9-28.32-25.3,0-38.53,19.98-38.53,49.59,0,28.02,10.63,49.88,34.79,49.88,8.06,0,15.53-2.15,19.83-4.18v-30.32c0-10.63-2.59-14.09-12.79-14.09h-1.01v-1.44h41.97v1.44c-8.63,0-11.08,3.46-11.08,14.09v28.74h6.18v.86c-12.93,4.45-27.45,10.49-43.13,10.49-36.08,0-54.06-25-54.06-55.49"/>
            <path class="cls-1" d="M861.19,66.99V17.11c0-10.63-2.45-14.09-11.08-14.09v-1.44h41.1v1.44c-10.21,0-12.79,3.46-12.79,14.09v49.88c0,22.28,7.91,34.92,28.46,34.92s28.46-12.93,28.46-34.79V19.12c0-12.22-3.16-16.1-13.08-16.1v-1.44h31.06v1.44c-8.33,0-11.65,3.88-11.65,16.1v47.87c0,29.6-12.51,43.85-40.26,43.85-26.02,0-40.26-14.22-40.26-43.85"/>
            <path class="cls-1" d="M786.43,0c-30.46,0-51.16,22.72-51.16,55.49s20.85,55.34,51.17,55.34,51.17-22.7,51.17-55.34S816.9,0,786.43,0ZM786.45,105.22c-20.98,0-32.05-21.99-32.05-49.73s10.93-49.73,32.05-49.73,31.9,21.99,31.9,49.73-10.93,49.73-31.9,49.73Z"/>
            <path class="cls-1" d="M692.86,93.73v-37.22h-49.88v37.22c0,10.63,2.59,14.09,12.79,14.09v1.44h-42.69v-1.44c10.21,0,12.79-3.46,12.79-14.09V17.11c0-10.63-2.59-14.09-12.79-14.09v-1.44h42.69v1.44c-10.21,0-12.79,3.46-12.79,14.09v33.49h49.88V17.11c0-10.63-2.59-14.09-12.79-14.09v-1.44h42.69v1.44c-10.21,0-12.79,3.46-12.79,14.09v76.61c0,10.63,2.59,14.09,12.79,14.09v1.44h-42.69v-1.44c10.21,0,12.79-3.46,12.79-14.09"/>
            <path class="cls-1" d="M547.69,93.73V7.47h-11.08c-15.23,0-22.13,6.48-23.42,24.01h-1.29V1.58h88.54l.15,29.9h-1.29c-.86-17.53-8.19-24.01-23.72-24.01h-10.63v86.26c0,10.63,2.45,14.09,12.66,14.09v1.44h-42.69v-1.44c10.21,0,12.79-3.46,12.79-14.09"/>
          </g>
          <g>
            <path class="cls-1" d="M238.03,93.87L198.21.15h-1.29l-37.52,89.97-.02.04c-5.17,13.38-9.62,17.68-15.95,17.83v1.44h31.63v-1.44h-.86c-7.62,0-11.35-3.59-11.35-7.62,0-2.58,1.14-5.89,2.72-9.77l5.61-13.38h41.55l6.18,15.23c1.58,3.88,2.59,6.31,2.59,8.91,0,3.73-2.15,6.61-9.92,6.61h-1.01v1.44h41.1v-1.44c-5.89-.29-9.05-3.31-13.65-14.09h0ZM173.65,71.44l18.1-43.85,18.4,43.85h-36.5Z"/>
            <path class="cls-1" d="M389.55,93.73V17.11c0-10.63-2.59-14.09-12.79-14.09v-1.44h80.35v27.45h-1.29c-1.29-15.8-7.91-21.56-24.88-21.56h-24.14v41.97h22.13c11.35,0,15.68-3.46,16.1-15.53h1.29v37.37h-1.29c-.42-12.07-4.75-16.1-16.1-16.1h-22.13v48.15h22.13c20.28,0,28.02-3.59,29.9-24.73h1.29v30.62h-83.37v-1.44c10.21,0,12.79-3.46,12.79-14.09"/>
            <path class="cls-1" d="M305.9,1.58h-44.71v1.44c10.19,0,12.79,3.46,12.79,13.95v76.91c0,10.49-2.58,13.95-12.79,13.95v1.44h44.71c32.62,0,58.64-16.82,58.64-53.76S338.53,1.58,305.9,1.58ZM305.3,103.37h-14.09V7.49h14.09c26.31,0,40.11,15.95,40.11,48s-13.8,47.87-40.11,47.87h0Z"/>
            <path class="cls-1" d="M62.1,110.82L19.98,19.98v71.59c0,12.51,3.16,16.25,13.08,16.25v1.44H.72v-1.44c9.77,0,13.08-3.74,13.08-16.25V19.12C13.8,7.05,10.21,3.02,0,3.02v-1.44h30.32l38.38,82.5L105.65,1.58h28.61v1.44c-10.21,0-12.79,3.46-12.79,14.09v76.76c0,10.49,2.59,13.95,12.66,13.95v1.44h-42.83v-1.44c10.21,0,12.93-3.46,12.93-13.95V19.83l-40.83,90.98h-1.31,0Z"/>
          </g>
        </g>
      </g>
    </g>
  </g>
</svg>