<?xml version="1.0" encoding="UTF-8"?>
<svg id="Layer_2" data-name="Layer 2" xmlns="http://www.w3.org/2000/svg" viewBox="0 0 134.26 249.86">
  <g id="Layer_1-2" data-name="Layer 1">
    <g>
      <path d="M58.57,234.33v-86.25h-11.08c-15.23,0-22.13,6.48-23.42,24.01h-1.29v-29.9h88.54l.15,29.9h-1.29c-.86-17.53-8.19-24.01-23.72-24.01h-10.63v86.26c0,10.63,2.45,14.09,12.66,14.09v1.44h-42.69v-1.44c10.21,0,12.79-3.46,12.79-14.09"/>
      <path d="M62.1,109.24L19.98,18.4v71.59c0,12.51,3.16,16.25,13.08,16.25v1.44H.72v-1.44c9.77,0,13.08-3.74,13.08-16.25V17.53C13.8,5.46,10.21,1.44,0,1.44V0h30.32l38.38,82.5L105.65,0h28.61v1.44c-10.21,0-12.79,3.46-12.79,14.09v76.76c0,10.49,2.59,13.95,12.66,13.95v1.44h-42.83v-1.44c10.21,0,12.93-3.46,12.93-13.95V18.25l-40.83,90.98h-1.31Z"/>
    </g>
  </g>
</svg>